<?xml version="1.0" encoding="UTF-8"?>
<svg id="Layer_1" xmlns="http://www.w3.org/2000/svg" viewBox="0 0 141.31 101.29" width="120" height="86.07">
  <defs>
    <style>
      .cls-1, .cls-2 {
        fill: #c73659;
      }

      .cls-3, .cls-2 {
        isolation: isolate;
      }

      .cls-2 {
        opacity: .1;
      }
    </style>
  </defs>
  <g id="Group_1125">
    <g id="box">
      <path id="Path_1025" class="cls-1" d="M98.31,57.59l7.5-7.5c.54-.54.54-1.42,0-1.96-.09-.09-.2-.17-.31-.24l-9.02-4.95c-.68-.36-1.52-.11-1.88.56-.36.67-.12,1.5.54,1.87l7.39,4.06-6.44,6.44-23.15-12.71,6.44-6.44,6.51,3.57c.68.36,1.52.11,1.88-.56.36-.67.12-1.5-.54-1.87l-7.42-4.07c-.54-.3-1.21-.2-1.65.24l-7.5,7.5-7.5-7.5c-.44-.44-1.11-.53-1.65-.24l-25.69,14.11c-.67.37-.92,1.21-.55,1.89.06.12.14.22.24.31l7.5,7.5-7.5,7.5c-.54.54-.54,1.42,0,1.96.09.09.2.17.31.24l7.76,4.26v14.25c0,.51.27.97.72,1.22l25.69,14.1c.42.23.92.23,1.34,0l25.69-14.1c.44-.24.72-.71.72-1.22v-14.25l7.76-4.26c.67-.37.92-1.21.55-1.89-.06-.12-.14-.22-.24-.31l-7.5-7.5ZM70.66,70.11l-22.8-12.52,22.8-12.52,22.8,12.52-22.8,12.52ZM61.93,36.73l6.43,6.44-23.15,12.71-6.44-6.44,23.15-12.71ZM45.22,59.31l23.15,12.71-6.44,6.44-23.15-12.71,6.44-6.44ZM94.95,84.98l-22.91,12.58.03-23.75c0-.77-.65-.15-1.42-.15s-1.44,0-1.44.76l.05,23.14-22.91-12.58v-11.9l15.15,8.32c.54.3,1.21.2,1.65-.24l7.5-7.5,7.5,7.5c.44.44,1.11.53,1.65.24l15.15-8.32v11.9ZM79.38,78.46l-6.44-6.44,23.15-12.71,6.44,6.44-23.15,12.71Z"/>
      <path id="Path_1026" class="cls-1" d="M91.33,43.09c.77,0,1.39-.62,1.39-1.39,0-.77-.62-1.39-1.39-1.39-.77,0-1.39.62-1.39,1.39,0,.37.15.72.41.98.26.26.61.41.98.41Z"/>
      <path id="Path_1027" class="cls-1" d="M70.66,77.36c-.77,0-1.39.62-1.39,1.39s.62,1.39,1.39,1.39c.77,0,1.39-.62,1.39-1.39,0-.37-.15-.72-.41-.98-.26-.26-.61-.41-.98-.41Z"/>
    </g>
  </g>
  <g id="Group_885" class="cls-3">
    <path id="Path_907" class="cls-2" d="M76.4,39.28c35.7,0,58.89-46.7,58.89-11,0,35.7-28.95,64.64-64.65,64.63-35.69,0-64.63-28.94-64.63-64.63,0-35.7,34.69,11,70.39,11Z"/>
    <ellipse id="Ellipse_179" class="cls-2" cx="50.57" cy="6.93" rx="7.62" ry="6.93"/>
    <circle id="Ellipse_182" class="cls-2" cx="97.67" cy="11.78" r="2.08"/>
    <ellipse id="Ellipse_183" class="cls-2" cx="38.1" cy="16.63" rx="2.08" ry="2.77"/>
    <ellipse id="Ellipse_181" class="cls-2" cx="133.69" cy="84.51" rx="7.62" ry="6.93"/>
    <ellipse id="Ellipse_180" class="cls-2" cx="7.62" cy="85.9" rx="7.62" ry="6.93"/>
  </g>
</svg>