<svg xmlns="http://www.w3.org/2000/svg" width="24" height="24" viewBox="0 0 24 24">
  <g id="Fcaebook_icon" data-name="Fcaebook icon" transform="translate(-21.952 -0.168)">
    <path id="Icon_11_" d="M31.942,23.36H29c-.463,0-.628-.167-.628-.632q0-1.794,0-3.588c0-.46.175-.635.632-.635h2.936c0-.082,0-1.809,0-2.6a6.492,6.492,0,0,1,.808-3.331,4.9,4.9,0,0,1,2.642-2.195A6.53,6.53,0,0,1,37.655,10q1.454,0,2.909,0c.417,0,.6.185.6.6q0,1.687,0,3.375c0,.424-.178.595-.6.6-.795.009-1.59,0-2.384.035a1.08,1.08,0,0,0-1.224,1.222c-.019.878-.008,1.757-.008,2.667h3.424c.485,0,.65.167.65.654q0,1.784,0,3.569c0,.48-.156.633-.643.634H36.937v9.627c0,.513-.162.677-.668.677h-3.7c-.448,0-.622-.174-.622-.621,0-3.135,0-9.572,0-9.682Z" transform="translate(-1.24 -9.496)" fill="#3d6ad6"/>
    <rect id="Rectangle_550" data-name="Rectangle 550" width="24" height="24" transform="translate(21.952 0.168)" fill="none"/>
  </g>
</svg>
