<svg id="google" xmlns="http://www.w3.org/2000/svg" width="24" height="24" viewBox="0 0 24 24">
  <rect id="Rectangle_228" data-name="Rectangle 228" width="24" height="24" fill="none"/>
  <g id="google-2" data-name="google">
    <path id="Path_419" data-name="Path 419" d="M277.543,211.479H267.9a.771.771,0,0,0-.771.771v3.08a.771.771,0,0,0,.771.771h5.429a7.248,7.248,0,0,1-3.12,3.656l2.315,4.008a11.589,11.589,0,0,0,5.909-10.135,7.813,7.813,0,0,0-.133-1.514A.774.774,0,0,0,277.543,211.479Z" transform="translate(-254.798 -201.716)" fill="#167ee6"/>
    <path id="Path_420" data-name="Path 420" d="M44.641,337.447a7.193,7.193,0,0,1-6.223-3.6l-4.008,2.31a11.809,11.809,0,0,0,16.139,4.332v-.005l-2.315-4.008A7.14,7.14,0,0,1,44.641,337.447Z" transform="translate(-32.822 -318.434)" fill="#12b347"/>
    <path id="Path_421" data-name="Path 421" d="M261.909,394.792v-.005l-2.315-4.008a7.14,7.14,0,0,1-3.594.972v4.625A11.8,11.8,0,0,0,261.909,394.792Z" transform="translate(-244.181 -372.738)" fill="#0f993e"/>
    <path id="Path_422" data-name="Path 422" d="M4.625,134.023a7.14,7.14,0,0,1,.971-3.594l-4.008-2.31a11.765,11.765,0,0,0,0,11.808l4.008-2.31A7.141,7.141,0,0,1,4.625,134.023Z" transform="translate(0 -122.204)" fill="#ffd500"/>
    <path id="Path_423" data-name="Path 423" d="M44.641,4.625a7.161,7.161,0,0,1,4.567,1.64.768.768,0,0,0,1.033-.047l2.182-2.182A.777.777,0,0,0,52.38,2.9,11.793,11.793,0,0,0,34.411,5.915l4.008,2.31A7.193,7.193,0,0,1,44.641,4.625Z" transform="translate(-32.822)" fill="#ff4b26"/>
    <path id="Path_424" data-name="Path 424" d="M260.567,6.265a.768.768,0,0,0,1.033-.047l2.182-2.182a.777.777,0,0,0-.044-1.136A11.783,11.783,0,0,0,256,0V4.625A7.161,7.161,0,0,1,260.567,6.265Z" transform="translate(-244.181)" fill="#d93f21"/>
  </g>
</svg>
